<svg width="43" height="43" viewBox="0 0 43 43" fill="none" xmlns="http://www.w3.org/2000/svg">
<circle cx="21.5" cy="21.5" r="21.5" fill="#FFEBEB"/>
<path d="M14 15.0005H20C20.55 15.0005 21 14.5505 21 14.0005C21 13.4505 20.55 13.0005 20 13.0005H14C12.9 13.0005 12 13.9005 12 15.0005V29.0005C12 30.1005 12.9 31.0005 14 31.0005H20C20.55 31.0005 21 30.5505 21 30.0005C21 29.4505 20.55 29.0005 20 29.0005H14V15.0005Z" fill="#FF5C5C"/>
<path d="M29.65 21.65L26.86 18.86C26.7905 18.7886 26.7012 18.7395 26.6036 18.7191C26.506 18.6987 26.4045 18.7079 26.3121 18.7455C26.2198 18.783 26.1408 18.8473 26.0851 18.9301C26.0295 19.0129 25.9999 19.1103 26 19.21V21H19C18.45 21 18 21.45 18 22C18 22.55 18.45 23 19 23H26V24.79C26 25.24 26.54 25.46 26.85 25.14L29.64 22.35C29.84 22.16 29.84 21.84 29.65 21.65Z" fill="#FF5C5C"/>
</svg>

