<svg width="43" height="43" viewBox="0 0 43 43" fill="none" xmlns="http://www.w3.org/2000/svg">
<circle cx="21.4999" cy="21.4999" r="21.4999" fill="#F4F9FD"/>
<mask id="mask0_1_1145" style="mask-type:luminance" maskUnits="userSpaceOnUse" x="11" y="13" width="21" height="20">
<path fill-rule="evenodd" clip-rule="evenodd" d="M10.9999 13.0002H31.4723V32.5011H10.9999V13.0002Z" fill="white"/>
</mask>
<g mask="url(#mask0_1_1145)">
<path fill-rule="evenodd" clip-rule="evenodd" d="M12.8236 22.1232C14.2256 26.4852 19.7646 30.0122 21.2366 30.8852C22.7136 30.0032 28.2926 26.4372 29.6495 22.1272C30.5405 19.3413 29.7135 15.8123 26.4276 14.7533C24.8356 14.2423 22.9786 14.5533 21.6966 15.5453C21.4286 15.7513 21.0566 15.7553 20.7866 15.5513C19.4286 14.5303 17.6546 14.2313 16.0376 14.7533C12.7566 15.8113 11.9326 19.3403 12.8236 22.1232ZM21.2376 32.5012C21.1136 32.5012 20.9906 32.4712 20.8786 32.4102C20.5656 32.2392 13.1926 28.1752 11.3956 22.5812C11.3946 22.5812 11.3946 22.5802 11.3946 22.5802C10.2667 19.0583 11.5226 14.6323 15.5776 13.3253C17.4816 12.7093 19.5566 12.9803 21.2346 14.0393C22.8606 13.0113 25.0206 12.7273 26.8866 13.3253C30.9455 14.6343 32.2055 19.0593 31.0785 22.5802C29.3395 28.1102 21.9126 32.2352 21.5976 32.4082C21.4856 32.4702 21.3616 32.5012 21.2376 32.5012Z" fill="#227DDE"/>
</g>
<path fill-rule="evenodd" clip-rule="evenodd" d="M27.1535 20.6249C26.7665 20.6249 26.4385 20.3279 26.4065 19.9359C26.3405 19.1139 25.7905 18.4199 25.0075 18.1669C24.6125 18.0389 24.3966 17.6159 24.5235 17.2229C24.6525 16.8289 25.0715 16.6149 25.4675 16.7389C26.8305 17.1799 27.7855 18.3869 27.9025 19.8139C27.9355 20.2269 27.6285 20.5889 27.2155 20.6219C27.1945 20.6239 27.1745 20.6249 27.1535 20.6249Z" fill="#227DDE"/>
</svg>

